<?xml version="1.0" encoding="utf-8"?>
<!-- Generator: Adobe Illustrator 21.0.0, SVG Export Plug-In . SVG Version: 6.00 Build 0)  -->
<svg version="1.1" id="Ebene_1" xmlns="http://www.w3.org/2000/svg" xmlns:xlink="http://www.w3.org/1999/xlink" x="0px" y="0px"
	 viewBox="0 0 64 64" style="enable-background:new 0 0 64 64;" xml:space="preserve">
<path style="fill:#79A548;" d="M0,0v64h64V0H0z M54.1,24.3l-7.4,24.3c-0.3,1.1-1,2.1-2,2.9c-1,0.8-2.1,1.2-3.3,1.2H16.7
	c-1.4,0-2.7-0.5-4-1.4c-1.3-1-2.2-2.1-2.7-3.5c-0.4-1.2-0.4-2.3-0.1-3.4c0-0.1,11-30.6,11.2-31c0.2-0.3,0.3-0.6,0.5-0.9
	c0.2-0.2,0.4-0.4,0.7-0.6c0.3-0.2,0.6-0.3,1-0.3c0.3,0,2.4,0,2.6,0h20.4c1.3,0,2.3,0.5,3.1,1.5c0.7,1,0.9,2.2,0.5,3.5l-7.3,24.3
	c-0.6,2.1-1.3,3.5-1.9,4.1c-0.6,0.6-1.8,0.9-3.4,0.9H13.9c-0.5,0-0.8,0.1-1,0.4c-0.2,0.3-0.2,0.7,0,1.2c0.4,1.2,1.7,1.9,3.9,1.9
	h24.7c0.5,0,1-0.1,1.5-0.4s0.8-0.6,0.9-1.1l8-26.4c0.1-0.4,0.2-0.9,0.1-1.5c0.7,0.3,1.2,0.7,1.6,1.2C54.3,21.8,54.5,23,54.1,24.3z"
	/>
<path style="fill:#FFFFFF;" d="M53.6,20.8c-0.4-0.5-0.9-0.9-1.6-1.2c0,0.6,0,1.1-0.1,1.5l-8,26.4c-0.1,0.5-0.5,0.8-0.9,1.1
	s-1,0.4-1.5,0.4H16.7c-2.1,0-3.4-0.6-3.9-1.9c-0.2-0.5-0.2-0.9,0-1.2c0.2-0.3,0.5-0.4,1-0.4h23.3c1.7,0,2.8-0.3,3.4-0.9
	c0.6-0.6,1.3-2,1.9-4.1l7.3-24.3c0.4-1.3,0.2-2.5-0.5-3.5c-0.7-1-1.7-1.5-3.1-1.5H25.9c-0.2,0-2.3,0-2.6,0c-0.3,0-0.7,0.1-1,0.3
	c-0.3,0.2-0.5,0.4-0.7,0.6c-0.2,0.2-0.4,0.5-0.5,0.9C21,13.6,10,44.1,10,44.2c-0.4,1.1-0.4,2.2,0.1,3.4c0.5,1.4,1.4,2.6,2.7,3.5
	c1.3,1,2.6,1.4,4,1.4h24.7c1.2,0,2.3-0.4,3.3-1.2c1-0.8,1.7-1.7,2-2.9l7.4-24.3C54.5,23,54.3,21.8,53.6,20.8z M23.1,24.9l0.6-1.7
	c0.1-0.2,0.2-0.4,0.4-0.6c0.2-0.2,0.5-0.3,0.7-0.3h6.4l1.2-4c0.1-0.5,0.5-0.8,1-0.8l2,0c0.3,0,0.6,0.6,0.5,1.1l-1.1,3.7h6.4
	c0.2,0,0.4,0.1,0.5,0.3c0.1,0.2,0.1,0.4,0.1,0.6l-0.6,1.7c-0.1,0.2-0.2,0.4-0.4,0.6c-0.2,0.2-0.5,0.3-0.7,0.3h-6.3l-3.3,11
	c-0.1,0.5-0.4,0.6-1,0.7l-1.9,0c-0.3,0-0.6-0.6-0.5-1.1l3.2-10.6h-6.4c-0.3,0-0.4-0.1-0.5-0.3C23.1,25.3,23,25.1,23.1,24.9z"/>
<path style="fill:#79A548;" d="M41.6,22.5c-0.1-0.2-0.3-0.3-0.5-0.3h-6.4l1.1-3.7c0.1-0.5-0.1-1.1-0.5-1.1l-2,0
	c-0.6,0-0.9,0.3-1,0.8l-1.2,4h-6.4c-0.2,0-0.5,0.1-0.7,0.3c-0.2,0.2-0.4,0.4-0.4,0.6l-0.6,1.7c-0.1,0.2-0.1,0.4,0.1,0.6
	c0.1,0.2,0.3,0.3,0.5,0.3h6.4l-3.2,10.6c-0.1,0.5,0.1,1.1,0.5,1.1l1.9,0c0.6,0,0.8-0.2,1-0.7l3.3-11H40c0.2,0,0.5-0.1,0.7-0.3
	c0.2-0.2,0.4-0.4,0.4-0.6l0.6-1.7C41.7,22.9,41.7,22.7,41.6,22.5z"/>
</svg>
